<svg width="512" height="512" viewBox="0 0 512 512" fill="none" xmlns="http://www.w3.org/2000/svg">
  <defs>
    <linearGradient id="bg" x1="88" y1="72" x2="420" y2="440" gradientUnits="userSpaceOnUse">
      <stop stop-color="#0F4C81"/>
      <stop offset="1" stop-color="#18A999"/>
    </linearGradient>
    <linearGradient id="panel" x1="140" y1="120" x2="372" y2="392" gradientUnits="userSpaceOnUse">
      <stop stop-color="#F8FBFF"/>
      <stop offset="1" stop-color="#D7EEF7"/>
    </linearGradient>
    <filter id="shadow" x="76" y="76" width="360" height="360" filterUnits="userSpaceOnUse" color-interpolation-filters="sRGB">
      <feFlood flood-opacity="0" result="BackgroundImageFix"/>
      <feColorMatrix in="SourceAlpha" type="matrix" values="0 0 0 0 0 0 0 0 0 0 0 0 0 0 0 0 0 0 127 0" result="hardAlpha"/>
      <feOffset dy="18"/>
      <feGaussianBlur stdDeviation="18"/>
      <feComposite in2="hardAlpha" operator="out"/>
      <feColorMatrix type="matrix" values="0 0 0 0 0.0156863 0 0 0 0 0.117647 0 0 0 0 0.211765 0 0 0 0.22 0"/>
      <feBlend mode="normal" in2="BackgroundImageFix" result="effect1_dropShadow_1_1"/>
      <feBlend mode="normal" in="SourceGraphic" in2="effect1_dropShadow_1_1" result="shape"/>
    </filter>
  </defs>
  <rect x="56" y="56" width="400" height="400" rx="104" fill="url(#bg)"/>
  <g filter="url(#shadow)">
    <rect x="116" y="110" width="280" height="280" rx="68" fill="url(#panel)"/>
    <path d="M173 189C173 177.402 182.402 168 194 168H262C273.598 168 283 177.402 283 189C283 200.598 273.598 210 262 210H229.213L266.485 247.272C274.687 255.474 274.687 268.774 266.485 276.976C258.284 285.177 244.985 285.177 236.783 276.976L199.511 239.704V272.5C199.511 284.098 190.109 293.5 178.511 293.5C166.913 293.5 157.511 284.098 157.511 272.5V189H173Z" fill="#0F4C81"/>
    <path d="M339 323C339 334.598 329.598 344 318 344H250C238.402 344 229 334.598 229 323C229 311.402 238.402 302 250 302H282.787L245.515 264.728C237.313 256.526 237.313 243.226 245.515 235.024C253.716 226.823 267.015 226.823 275.217 235.024L312.489 272.296V239.5C312.489 227.902 321.891 218.5 333.489 218.5C345.087 218.5 354.489 227.902 354.489 239.5V323H339Z" fill="#18A999"/>
    <circle cx="190" cy="168" r="18" fill="#0B3954"/>
    <circle cx="322" cy="344" r="18" fill="#0B3954"/>
  </g>
</svg>
